<svg width="21" height="20" viewBox="0 0 21 20" fill="none" xmlns="http://www.w3.org/2000/svg">
<path d="M18.5809 6.94931L10.8778 1.63682C10.7417 1.54856 10.5831 1.50159 10.4209 1.50159C10.2587 1.50159 10.1001 1.54856 9.96403 1.63682L2.26092 6.94931C2.15511 7.02334 2.06888 7.12198 2.00965 7.23674C1.95043 7.35149 1.91997 7.47892 1.92092 7.60806V15.5768C1.92092 16.3517 2.22876 17.0949 2.77672 17.6429C3.32467 18.1908 4.06786 18.4987 4.84279 18.4987H7.23341V13.983C7.23341 13.2081 7.54124 12.4649 8.0892 11.917C8.63716 11.369 9.38035 11.0612 10.1553 11.0612H10.6865C11.4615 11.0612 12.2046 11.369 12.7526 11.917C13.3006 12.4649 13.6084 13.2081 13.6084 13.983V18.4987H15.999C16.7739 18.4987 17.5171 18.1908 18.0651 17.6429C18.613 17.0949 18.9209 16.3517 18.9209 15.5768V7.60806C18.9218 7.47892 18.8914 7.35149 18.8321 7.23674C18.7729 7.12198 18.6867 7.02334 18.5809 6.94931Z" fill="#2388FF"/>
</svg>
