<svg width="15" height="15" viewBox="0 0 15 15" fill="none" xmlns="http://www.w3.org/2000/svg">
<path d="M13.6942 1.30585C13.3959 1.00753 12.9614 0.904328 12.5625 1.03268L1.3554 4.6351C0.929596 4.77212 0.634741 5.13288 0.586177 5.57777C0.537613 6.02178 0.748347 6.43805 1.13426 6.66266L5.10265 8.97726L8.53076 5.54828C8.78486 5.29419 9.19679 5.29419 9.45088 5.54828C9.70498 5.80238 9.70498 6.2143 9.45088 6.4684L6.0219 9.89738L8.33651 13.8658C8.5403 14.2144 8.9002 14.4199 9.29652 14.4199C9.33814 14.4199 9.38064 14.4173 9.42313 14.413C9.86715 14.3644 10.2288 14.0696 10.3649 13.6446L13.9682 2.43844C14.0966 2.03691 13.9916 1.60331 13.6942 1.30585Z" fill="white"/>
</svg>
